<svg width="469" height="90" viewBox="0 0 469 90" fill="none" xmlns="http://www.w3.org/2000/svg">
<path d="M15.0918 31.7399C20.0178 16.3981 34.2316 6 50.2772 6H129.647L120.405 34.7857H14.1138L15.0918 31.7399Z" fill="#FF1850"/>
<path d="M10.3858 56.1428C5.23222 69.563 15.0907 84 29.4083 84H78.7897L89.4873 56.1428H10.3858Z" fill="#FF1850"/>
<path d="M189.331 84C183.623 84 178.329 83.1058 173.446 81.3175C168.633 79.4603 164.439 76.8466 160.863 73.4762C157.356 70.1058 154.606 66.1508 152.611 61.6111C150.617 57.0026 149.62 51.9471 149.62 46.4444C149.62 40.9418 150.617 35.9206 152.611 31.381C154.606 26.7725 157.356 22.7831 160.863 19.4127C164.439 16.0423 168.633 13.463 173.446 11.6746C178.329 9.81746 183.623 8.88889 189.331 8.88889C196.001 8.88889 201.949 10.0582 207.175 12.3968C212.469 14.7355 216.87 18.1058 220.377 22.5079L207.381 34.2698C205.043 31.5185 202.464 29.4206 199.645 27.9762C196.895 26.5317 193.8 25.8095 190.362 25.8095C187.405 25.8095 184.689 26.291 182.214 27.254C179.738 28.2169 177.607 29.627 175.819 31.4841C174.1 33.2725 172.724 35.4392 171.693 37.9841C170.73 40.5291 170.249 43.3492 170.249 46.4444C170.249 49.5397 170.73 52.3598 171.693 54.9048C172.724 57.4497 174.1 59.6508 175.819 61.5079C177.607 63.2963 179.738 64.672 182.214 65.6349C184.689 66.5979 187.405 67.0794 190.362 67.0794C193.8 67.0794 196.895 66.3571 199.645 64.9127C202.464 63.4683 205.043 61.3704 207.381 58.619L220.377 70.381C216.87 74.7143 212.469 78.0847 207.175 80.4921C201.949 82.8307 196.001 84 189.331 84Z" fill="white"/>
<path d="M228.554 82.5556V26.6349H247.223V42.9365L244.439 38.2937C246.089 34.0979 248.771 30.9683 252.484 28.9048C256.197 26.7725 260.701 25.7064 265.996 25.7064V43.3492C265.102 43.2116 264.311 43.1429 263.623 43.1429C263.004 43.0741 262.317 43.0397 261.56 43.0397C257.572 43.0397 254.34 44.1402 251.865 46.3413C249.389 48.4735 248.152 51.9815 248.152 56.8651V82.5556H228.554Z" fill="white"/>
<path d="M297.801 83.4841C293.263 83.4841 289.171 82.5899 285.527 80.8016C281.951 79.0132 279.132 76.2275 277.069 72.4445C275.075 68.5926 274.078 63.7434 274.078 57.8968V26.6349H293.675V54.6984C293.675 59.0317 294.466 62.127 296.048 63.9841C297.698 65.8413 300.001 66.7698 302.958 66.7698C304.884 66.7698 306.637 66.3228 308.219 65.4286C309.8 64.5344 311.072 63.1243 312.035 61.1984C312.998 59.2037 313.479 56.6587 313.479 53.5635V26.6349H333.076V82.5556H314.407V66.7698L318.017 71.2064C316.092 75.3333 313.307 78.4286 309.663 80.4921C306.018 82.4868 302.064 83.4841 297.801 83.4841Z" fill="white"/>
<path d="M366.019 83.4841C361.274 83.4841 356.633 82.9339 352.094 81.8333C347.625 80.7328 344.015 79.3571 341.264 77.7064L347.143 64.2937C349.756 65.8757 352.816 67.1482 356.323 68.1111C359.83 69.0053 363.268 69.4524 366.638 69.4524C369.938 69.4524 372.207 69.1085 373.445 68.4206C374.752 67.7328 375.405 66.8042 375.405 65.6349C375.405 64.5344 374.786 63.7434 373.548 63.2619C372.379 62.7116 370.798 62.2989 368.804 62.0238C366.878 61.7487 364.747 61.4392 362.409 61.0952C360.071 60.7513 357.698 60.3042 355.292 59.754C352.954 59.1349 350.788 58.2407 348.794 57.0714C346.868 55.8333 345.321 54.1825 344.152 52.119C342.983 50.0556 342.399 47.4418 342.399 44.2778C342.399 40.7011 343.43 37.537 345.493 34.7857C347.625 31.9656 350.719 29.7646 354.776 28.1825C358.833 26.5317 363.784 25.7064 369.629 25.7064C373.548 25.7064 377.502 26.1191 381.49 26.9444C385.547 27.7011 388.951 28.8704 391.702 30.4524L385.822 43.7619C383.072 42.1799 380.321 41.1138 377.571 40.5635C374.82 39.9444 372.207 39.6349 369.732 39.6349C366.431 39.6349 364.093 40.0132 362.718 40.7698C361.412 41.5265 360.758 42.455 360.758 43.5556C360.758 44.6561 361.343 45.5159 362.512 46.1349C363.681 46.6852 365.228 47.1323 367.153 47.4762C369.147 47.7513 371.313 48.0608 373.651 48.4048C375.989 48.6799 378.327 49.127 380.665 49.746C383.072 50.3651 385.238 51.2937 387.163 52.5317C389.157 53.7011 390.739 55.3175 391.908 57.381C393.077 59.3757 393.661 61.955 393.661 65.119C393.661 68.5582 392.595 71.6534 390.464 74.4048C388.401 77.1561 385.307 79.3571 381.181 81.0079C377.124 82.6587 372.07 83.4841 366.019 83.4841Z" fill="white"/>
<path d="M438.516 25.7064C442.848 25.7064 446.768 26.6005 450.274 28.3889C453.781 30.1085 456.532 32.791 458.526 36.4365C460.589 40.082 461.62 44.7937 461.62 50.5714V82.5556H442.023V53.7698C442.023 49.7804 441.198 46.8915 439.547 45.1032C437.966 43.246 435.731 42.3175 432.843 42.3175C430.78 42.3175 428.889 42.7989 427.17 43.7619C425.451 44.6561 424.11 46.0661 423.148 47.9921C422.185 49.918 421.704 52.4286 421.704 55.5238V82.5556H402.106V6H421.704V42.5238L417.165 37.881C419.297 33.8228 422.219 30.7963 425.932 28.8016C429.646 26.7381 433.84 25.7064 438.516 25.7064Z" fill="white"/>
</svg>
