<svg width="20" height="20" viewBox="0 0 20 20" fill="none" xmlns="http://www.w3.org/2000/svg">
<g clip-path="url(#clip0_1105_84951)">
<rect x="3" y="3" width="14" height="14" rx="7" fill="white"/>
<path fill-rule="evenodd" clip-rule="evenodd" d="M10.0001 18.3333C14.6201 18.3333 18.3334 14.62 18.3334 10C18.3334 5.38 14.6201 1.66667 10.0001 1.66667C5.38008 1.66667 1.66675 5.38 1.66675 10C1.66675 14.62 5.38008 18.3333 10.0001 18.3333ZM12.2917 11.3167C12.2917 10.1033 11.5626 9.68667 10.1042 9.51501C9.06258 9.37501 8.85425 9.09834 8.85425 8.60917C8.85425 8.12417 9.20425 7.8125 9.89591 7.8125C10.5209 7.8125 10.8709 8.02084 11.0417 8.54084C11.0606 8.59082 11.094 8.634 11.1377 8.66475C11.1814 8.69551 11.2333 8.71244 11.2867 8.71334H11.8392C11.8712 8.71436 11.9031 8.70888 11.9329 8.69723C11.9627 8.68558 11.9899 8.66801 12.0127 8.64557C12.0355 8.62314 12.0535 8.59631 12.0657 8.5667C12.0779 8.5371 12.0839 8.50534 12.0834 8.47334V8.43667C11.9434 7.67167 11.3184 6.9425 10.5209 6.87417V6.10917C10.5209 5.96834 10.4167 5.86417 10.2459 5.83251H9.78758C9.64591 5.83251 9.51591 5.93667 9.47925 6.10917V6.87417C8.43758 7.01584 7.74591 7.8125 7.74591 8.6825C7.74591 9.8275 8.43758 10.2758 9.89591 10.4525C10.8709 10.6242 11.1826 10.8333 11.1826 11.39C11.1826 11.9425 10.6934 12.3275 10.0367 12.3275C9.13091 12.3275 8.81841 11.9425 8.71425 11.4217C8.68258 11.2858 8.57841 11.2133 8.47425 11.2133H7.88091C7.84891 11.2129 7.81715 11.2189 7.78755 11.2311C7.75794 11.2432 7.73111 11.2613 7.70868 11.2841C7.68624 11.3069 7.66867 11.334 7.65703 11.3638C7.64538 11.3937 7.6399 11.4255 7.64091 11.4575V11.4942C7.77675 12.3592 8.33341 12.9525 9.48008 13.125V13.895C9.48008 14.0367 9.58425 14.13 9.75508 14.1658H10.2551C10.3909 14.1658 10.4851 14.0725 10.5217 13.895V13.1242C11.5634 12.9525 12.2917 12.255 12.2917 11.3175M6.49341 13.9125C6.99681 14.3744 7.5868 14.7318 8.22925 14.9642C8.33341 15.0367 8.43758 15.1725 8.43758 15.2767V15.7658C8.43758 15.8333 8.43758 15.87 8.40175 15.9017C8.37008 16.0417 8.22925 16.11 8.08925 16.0417C6.82557 15.6393 5.72264 14.8454 4.93996 13.7748C4.15728 12.7042 3.73543 11.4124 3.73543 10.0863C3.73543 8.76007 4.15728 7.46826 4.93996 6.39767C5.72264 5.32707 6.82557 4.53319 8.08925 4.13084C8.12508 4.09917 8.19341 4.09917 8.22925 4.09917C8.37091 4.13084 8.43758 4.23501 8.43758 4.37501V4.86C8.43758 5.03667 8.37091 5.14084 8.22925 5.20834C7.51925 5.46495 6.87448 5.87476 6.34072 6.40865C5.80697 6.94255 5.39733 7.58744 5.14091 8.2975C4.78272 9.26187 4.72008 10.3111 4.96098 11.3112C5.20188 12.3114 5.73541 13.217 6.49341 13.9125ZM11.5992 4.27084C11.6309 4.13084 11.7709 4.0625 11.9117 4.13084C12.8664 4.44092 13.7332 4.97464 14.4398 5.68752C15.1465 6.4004 15.6726 7.27181 15.9742 8.22917C17.0159 11.5267 15.2084 15.0367 11.9117 16.0783C11.8751 16.11 11.8076 16.11 11.7709 16.11C11.6309 16.0783 11.5626 15.9742 11.5626 15.8333V15.35C11.5626 15.1725 11.6309 15.0683 11.7709 15C13.1934 14.4792 14.3392 13.37 14.8601 11.9117C15.0983 11.2714 15.2072 10.5902 15.1806 9.90752C15.1541 9.22486 14.9925 8.55423 14.7053 7.93436C14.418 7.31449 14.0108 6.75768 13.5072 6.29608C13.0035 5.83448 12.4134 5.47724 11.7709 5.24501C11.6667 5.17251 11.5626 5.03667 11.5626 4.89584V4.41251C11.5626 4.33917 11.5626 4.30751 11.5992 4.27084Z" fill="#2775CA"/>
</g>
<rect x="10" y="10" width="10" height="10" rx="5" fill="#082723"/>
<path d="M16.9379 12.0195C17.8711 11.8591 18.5449 12.7187 18.8018 13.5168C19.1966 14.742 19.0681 17.1352 17.8035 17.8241C15.9129 18.8535 15.9323 14.9975 13.9796 15.7048C13.1199 16.0162 12.8904 17.6974 11.8135 17.1753C10.816 16.6915 10.6706 13.6435 11.7437 13.1913C12.8858 12.7101 13.1563 14.5641 14.3216 14.6034C15.8563 14.655 15.8499 12.2059 16.9379 12.0195Z" fill="#2FE3AC"/>
<defs>
<clipPath id="clip0_1105_84951">
<rect width="20" height="20" rx="10" fill="white"/>
</clipPath>
</defs>
</svg>
